<?xml version="1.0" standalone="no"?>
<!DOCTYPE svg PUBLIC "-//W3C//DTD SVG 20010904//EN"
 "http://www.w3.org/TR/2001/REC-SVG-20010904/DTD/svg10.dtd">
<svg version="1.0" xmlns="http://www.w3.org/2000/svg"
 width="260.000000pt" height="260.000000pt" viewBox="0 0 260.000000 260.000000"
 preserveAspectRatio="xMidYMid meet">
<metadata>
Created by potrace 1.14, written by Peter Selinger 2001-2017
</metadata>
<g transform="translate(0.000000,260.000000) scale(0.100000,-0.100000)"
fill="#000000" stroke="none">
<path d="M1169 2596 c-2 -2 -24 -6 -49 -9 -275 -35 -554 -176 -751 -381 -48
-51 -89 -101 -156 -191 -16 -21 -55 -92 -87 -160 -56 -116 -95 -246 -114 -375
-8 -59 -9 -303 0 -360 9 -64 38 -191 48 -215 4 -11 23 -57 40 -103 69 -176
204 -361 360 -493 228 -193 498 -296 797 -305 362 -11 685 112 943 360 114
109 217 253 280 391 32 68 86 232 95 285 3 19 9 53 13 75 8 50 8 316 0 371
-87 569 -516 1001 -1093 1101 -35 6 -321 14 -326 9z m336 -180 c296 -66 531
-213 706 -444 69 -91 152 -265 185 -387 24 -88 27 -119 28 -265 1 -193 -5
-239 -49 -374 -73 -225 -240 -448 -431 -577 -142 -95 -319 -167 -459 -185 -27
-3 -53 -8 -57 -10 -4 -3 -57 -5 -117 -5 -313 0 -595 115 -811 332 -543 545
-396 1462 291 1809 176 89 316 120 529 116 85 -2 169 -7 185 -10z"/>
<path d="M816 1941 c-14 -16 -17 -50 -21 -237 -4 -197 -3 -223 14 -259 21 -46
73 -95 101 -95 18 0 19 -7 15 -97 -22 -538 -22 -556 -5 -588 16 -30 68 -42
109 -25 27 11 55 55 54 84 -1 6 -4 85 -7 176 -3 91 -8 229 -11 307 l-6 141 31
7 c35 8 82 61 98 111 6 20 11 127 12 249 1 203 0 214 -19 224 -27 15 -37 14
-55 -5 -13 -13 -16 -42 -16 -158 0 -113 -3 -146 -15 -156 -16 -13 -55 -5 -56
13 0 7 -2 79 -2 160 -2 154 -6 166 -49 167 -25 0 -31 -32 -33 -188 -2 -150 -9
-177 -43 -156 -15 10 -17 31 -17 168 0 127 -3 159 -15 166 -23 15 -45 12 -64
-9z"/>
<path d="M1481 1932 c-43 -29 -54 -43 -85 -102 -83 -158 -56 -405 55 -505 l39
-35 1 -289 c0 -250 3 -293 17 -322 21 -42 59 -57 100 -40 50 21 54 47 47 273
-4 111 -8 243 -9 291 l-2 88 29 16 c161 83 184 431 39 587 -62 67 -164 83
-231 38z"/>
</g>
</svg>
